<svg width="38" height="37" viewBox="0 0 38 37" fill="none" xmlns="http://www.w3.org/2000/svg">
<g id="Camera">
<g id="Iconly/Bold/Camera">
<g id="Camera_2">
<path id="Vector" d="M22.784 4.625C24.2795 4.6404 25.4974 5.41038 26.2065 6.79634C26.3896 7.16208 26.645 7.69625 26.9123 8.25975L27.2351 8.94112L27.3936 9.27567L27.5478 9.61446C27.6095 9.72225 27.7174 9.79925 27.8561 9.79925C31.5561 9.79925 34.5778 12.8176 34.5778 16.5135V25.6608C34.5778 29.3567 31.5561 32.375 27.8561 32.375H10.4661C6.75071 32.375 3.74446 29.3567 3.74446 25.6608V16.5135C3.74446 12.8176 6.75071 9.79925 10.4661 9.79925C10.5895 9.79925 10.7128 9.73765 10.759 9.61446L10.8515 9.42966C11.2832 8.52109 11.8074 7.41232 12.1157 6.79634C12.8249 5.41038 14.0274 4.6404 15.5228 4.625H22.784ZM19.1611 14.4961C17.5424 14.4961 16.0161 15.1275 14.8599 16.2825C13.719 17.4374 13.087 18.9466 13.1024 20.5481C13.1024 22.1651 13.7345 23.6742 14.8753 24.8292C16.0315 25.9688 17.5424 26.6002 19.1611 26.6002C20.8261 26.6002 22.337 25.9226 23.4315 24.8292C24.5261 23.7358 25.2045 22.2267 25.2199 20.5481C25.2199 18.9466 24.5878 17.422 23.447 16.2671C22.3061 15.1275 20.7799 14.4961 19.1611 14.4961ZM19.1611 16.806C20.1632 16.806 21.1036 17.191 21.8128 17.8994C22.522 18.6078 22.9074 19.5472 22.9074 20.5481C22.892 22.6117 21.227 24.2902 19.1611 24.2902C18.159 24.2902 17.2186 23.9052 16.5095 23.1969C15.8003 22.4885 15.4149 21.5491 15.4149 20.5481V20.5327C15.3995 19.5626 15.7849 18.6232 16.494 17.9148C17.2186 17.191 18.159 16.806 19.1611 16.806ZM27.8099 14.1265C27.039 14.1265 26.4224 14.7579 26.4224 15.5279C26.4224 16.2979 27.039 16.9138 27.8099 16.9138C28.5807 16.9138 29.2128 16.2979 29.2128 15.5279C29.2128 14.7579 28.5807 14.1265 27.8099 14.1265Z" fill="#4D4C4E"/>
</g>
</g>
</g>
</svg>
