<svg width="37" height="37" viewBox="0 0 37 37" fill="none" xmlns="http://www.w3.org/2000/svg">
<g id="Chat">
<g id="Iconly/Bold/Chat">
<g id="Chat_2">
<path id="Vector" d="M18.5226 3.0835C27.2753 3.0835 33.9015 10.263 33.9015 18.477C33.9015 28.0034 26.135 33.9168 18.4917 33.9168C15.9645 33.9168 13.16 33.2375 10.9101 31.9097C10.1242 31.431 9.46161 31.0759 8.61408 31.3538L5.5013 32.2802C4.71541 32.5272 4.00656 31.9097 4.2377 31.0759L5.27016 27.6174C5.43966 27.1387 5.40884 26.6292 5.16229 26.2278C3.83705 23.7883 3.08197 21.1172 3.08197 18.5233C3.08197 10.402 9.56948 3.0835 18.5226 3.0835ZM25.5648 16.5625C24.4707 16.5625 23.5924 17.4425 23.5924 18.5388C23.5924 19.6196 24.4707 20.5151 25.5648 20.5151C26.6589 20.5151 27.5373 19.6196 27.5373 18.5388C27.5373 17.4425 26.6589 16.5625 25.5648 16.5625ZM18.4609 16.5625C17.3822 16.547 16.4885 17.4425 16.4885 18.5233C16.4885 19.6196 17.3668 20.4996 18.4609 20.5151C19.555 20.5151 20.4334 19.6196 20.4334 18.5388C20.4334 17.4425 19.555 16.5625 18.4609 16.5625ZM11.357 16.5625C10.2629 16.5625 9.38456 17.4425 9.38456 18.5388C9.38456 19.6196 10.2783 20.5151 11.357 20.5151C12.4511 20.4996 13.3295 19.6196 13.3295 18.5388C13.3295 17.4425 12.4511 16.5625 11.357 16.5625Z" fill="#7C01F6"/>
</g>
</g>
</g>
</svg>
