<svg width="37" height="37" viewBox="0 0 37 37" fill="none" xmlns="http://www.w3.org/2000/svg">
<g id="Setting">
<g id="Iconly/Bold/Setting">
<g id="Setting_2">
<path id="Vector" d="M19.6056 3.0835C20.7714 3.0835 21.827 3.731 22.41 4.68683C22.6936 5.14933 22.8826 5.71975 22.8354 6.321C22.8039 6.7835 22.9457 7.246 23.1977 7.67766C24.0012 8.98808 25.7816 9.48141 27.168 8.74141C28.7278 7.84725 30.6972 8.38683 31.5952 9.91308L32.6508 11.7322C33.5646 13.2585 33.0605 15.2164 31.485 16.0952C30.1458 16.8814 29.6731 18.6235 30.4766 19.9493C30.7287 20.3656 31.0123 20.7202 31.4534 20.936C32.0049 21.2289 32.4303 21.6914 32.7296 22.1539C33.3126 23.1097 33.2653 24.2814 32.6981 25.3143L31.5952 27.1643C31.0123 28.151 29.9252 28.7677 28.8066 28.7677C28.2551 28.7677 27.6407 28.6135 27.1365 28.3052C26.7269 28.0431 26.2542 27.9506 25.7501 27.9506C24.1903 27.9506 22.8826 29.2302 22.8354 30.7564C22.8354 32.5293 21.3859 33.9168 19.574 33.9168H17.4313C15.6037 33.9168 14.1543 32.5293 14.1543 30.7564C14.1228 29.2302 12.8151 27.9506 11.2553 27.9506C10.7354 27.9506 10.2627 28.0431 9.86885 28.3052C9.36469 28.6135 8.73448 28.7677 8.19881 28.7677C7.06443 28.7677 5.97733 28.151 5.39438 27.1643L4.30728 25.3143C3.72434 24.3122 3.69282 23.1097 4.27577 22.1539C4.52785 21.6914 5.0005 21.2289 5.53618 20.936C5.97733 20.7202 6.26092 20.3656 6.52876 19.9493C7.31652 18.6235 6.84386 16.8814 5.50467 16.0952C3.94491 15.2164 3.44074 13.2585 4.33879 11.7322L5.39438 9.91308C6.30818 8.38683 8.26183 7.84725 9.83734 8.74141C11.208 9.48141 12.9884 8.98808 13.7919 7.67766C14.044 7.246 14.1858 6.7835 14.1543 6.321C14.1228 5.71975 14.2961 5.14933 14.5954 4.68683C15.1783 3.731 16.2339 3.11433 17.3841 3.0835H19.6056ZM18.5184 14.1527C16.0449 14.1527 14.044 16.0952 14.044 18.5156C14.044 20.936 16.0449 22.8631 18.5184 22.8631C20.992 22.8631 22.9457 20.936 22.9457 18.5156C22.9457 16.0952 20.992 14.1527 18.5184 14.1527Z" fill="#4D4C4E"/>
</g>
</g>
</g>
</svg>
